<?xml version="1.0" encoding="UTF-8"?>
<svg id="_Слой_2" data-name="Слой 2" xmlns="http://www.w3.org/2000/svg" viewBox="0 0 40 40">
  <defs>
    <style>
      .cls-1 {
        fill: #fff;
      }

      .cls-1, .cls-2 {
        stroke-width: 0px;
      }

      .cls-2 {
        fill: #006fcf;
      }
    </style>
  </defs>
  <g id="Layer_1" data-name="Layer 1">
    <rect class="cls-2" x="0" width="40" height="40" rx="6.73" ry="6.73"/>
    <g>
      <path class="cls-1" d="m30.47,19.17h2.08v-4.84h-2.27v.67l-.43-.67h-1.96v.86l-.37-.86h-3.61c-.12,0-.24.06-.37.06s-.18.06-.31.12c-.12.06-.18.06-.31.12v-.31h-10.35l-.31.8-.31-.8h-2.45v.86l-.37-.86h-1.96l-.86,2.08-1.16,2.76h2.57l.24-.67h.49l.24.67h10.78v-.61l.43.61h3v-.37c.06.06.18.06.24.12.06.06.18.06.24.12.12.06.24.06.37.06h2.2l.24-.67h.49l.24.67h3v-.61l.49.67Zm3.98,5.31c.14-.35.14-.82.07-1.13-.04-.2-.21-.45-.5-.74l.8-1.85h-17.82l-.43.61-.43-.61h-4.9v4.84h4.9l.43-.61.43.61h3.06v-1.04h-.12c.43,0,.8-.06,1.1-.18v1.29h2.2v-.61l.43.61h9.12c.42,0,.76-.2,1-.34.24-.14.51-.49.65-.84Z"/>
      <path class="cls-2" d="m32.8,24.13h-1.65v.67h1.59c.67,0,1.1-.43,1.1-1.04s-.37-.92-.98-.92h-.73c-.18,0-.31-.12-.31-.31s.12-.31.31-.31h1.41l.31-.67h-1.65c-.67,0-1.1.43-1.1.98,0,.61.37.92.98.92h.73c.18,0,.31.12.31.31.06.24-.06.37-.31.37Zm-3,0h-1.65v.67h1.59c.67,0,1.1-.43,1.1-1.04s-.37-.92-.98-.92h-.73c-.18,0-.31-.12-.31-.31s.12-.31.31-.31h1.41l.31-.67h-1.65c-.67,0-1.1.43-1.1.98,0,.61.37.92.98.92h.73c.18,0,.31.12.31.31.06.24-.12.37-.31.37Zm-2.14-1.96v-.67h-2.57v3.24h2.57v-.67h-1.84v-.67h1.78v-.67h-1.78v-.61h1.84v.06Zm-4.16,0c.31,0,.43.18.43.37s-.12.37-.43.37h-.92v-.8l.92.06Zm-.92,1.41h.37l.98,1.16h.92l-1.1-1.22c.55-.12.86-.49.86-.98,0-.61-.43-1.04-1.1-1.04h-1.71v3.24h.73l.06-1.16Zm-1.96-.98c0,.24-.12.43-.43.43h-.98v-.86h.92c.31,0,.49.18.49.43Zm-2.14-1.1v3.24h.73v-1.1h.98c.67,0,1.16-.43,1.16-1.1,0-.61-.43-1.1-1.1-1.1l-1.78.06Zm-1.1,3.24h.92l-1.29-1.65,1.29-1.59h-.92l-.8,1.04-.8-1.04h-.92l1.29,1.59-1.29,1.59h.92l.8-1.04.8,1.1Zm-2.76-2.57v-.67h-2.57v3.24h2.57v-.67h-1.84v-.67h1.78v-.67h-1.78v-.61h1.84v.06Zm14.88-5.76l1.29,1.96h.92v-3.24h-.73v2.14l-.18-.31-1.16-1.84h-.98v3.24h.73v-2.2l.12.24Zm-3.18-.06l.24-.67.24.67.31.73h-1.1l.31-.73Zm1.29,2.02h.8l-1.41-3.24h-.98l-1.41,3.24h.8l.31-.67h1.59l.31.67Zm-3.43,0l.31-.67h-.18c-.55,0-.86-.37-.86-.92v-.06c0-.55.31-.92.86-.92h.8v-.67h-.86c-.98,0-1.53.67-1.53,1.59v.06c0,.98.55,1.59,1.47,1.59Zm-2.76,0h.73v-3.18h-.73v3.18Zm-1.59-2.57c.31,0,.43.18.43.37s-.12.37-.43.37h-.92v-.8l.92.06Zm-.92,1.41h.37l.98,1.16h.92l-1.1-1.22c.55-.12.86-.49.86-.98,0-.61-.43-1.04-1.1-1.04h-1.71v3.24h.73l.06-1.16Zm-1.35-1.41v-.67h-2.57v3.24h2.57v-.67h-1.84v-.67h1.78v-.67h-1.78v-.61h1.84v.06Zm-5.57,2.57h.67l.92-2.63v2.63h.73v-3.24h-1.22l-.73,2.2-.73-2.2h-1.22v3.24h.73v-2.63l.86,2.63Zm-3.98-2.02l.24-.67.24.67.31.73h-1.1l.31-.73Zm1.29,2.02h.8l-1.41-3.24h-.92l-1.41,3.24h.8l.31-.67h1.59l.24.67Z"/>
    </g>
  </g>
</svg>