<?xml version="1.0" encoding="UTF-8"?>
<svg id="_Слой_2" data-name="Слой 2" xmlns="http://www.w3.org/2000/svg" viewBox="0 0 40 40">
  <defs>
    <style>
      .cls-1 {
        fill: #fff;
      }

      .cls-1, .cls-2 {
        fill-rule: evenodd;
      }

      .cls-1, .cls-2, .cls-3 {
        stroke-width: 0px;
      }

      .cls-2 {
        fill: #b0cb1f;
      }

      .cls-3 {
        fill: #e51a4b;
      }
    </style>
  </defs>
  <g id="Layer_1" data-name="Layer 1">
    <rect class="cls-3" width="40" height="40" rx="6.73" ry="6.73"/>
    <g>
      <path class="cls-1" d="m17.72,28.6c1.26-1.26,3.29-1.26,4.55,0,1.26,1.27,1.26,3.32,0,4.59-1.26,1.27-3.29,1.27-4.55,0-1.25-1.27-1.25-3.32,0-4.59h0Z"/>
      <path class="cls-1" d="m23.13,23.15c-1.25,1.26-1.25,3.32,0,4.59,1.26,1.26,3.3,1.26,4.55,0,1.25-1.27,1.25-3.32,0-4.59-1.26-1.26-3.29-1.26-4.55,0h0Z"/>
      <path class="cls-1" d="m28.54,17.71c-1.26,1.26-1.26,3.32,0,4.58,1.26,1.27,3.29,1.27,4.55,0,1.25-1.26,1.25-3.32,0-4.58-1.26-1.27-3.29-1.27-4.55,0h0Z"/>
      <path class="cls-1" d="m12.32,23.15c-1.26,1.26-1.26,3.32,0,4.59,1.26,1.26,3.29,1.26,4.55,0,1.25-1.27,1.25-3.32,0-4.59-1.26-1.26-3.29-1.26-4.55,0h0Z"/>
      <path class="cls-1" d="m6.92,17.71c-1.26,1.27-1.26,3.32,0,4.58,1.26,1.27,3.29,1.27,4.55,0,1.26-1.26,1.26-3.31,0-4.58-1.26-1.27-3.29-1.27-4.55,0h0Z"/>
      <path class="cls-1" d="m17.72,17.71c-1.25,1.26-1.25,3.32,0,4.58,1.26,1.27,3.29,1.27,4.55,0,1.26-1.26,1.26-3.32,0-4.58-1.26-1.27-3.3-1.27-4.55,0h0Z"/>
      <path class="cls-1" d="m12.32,12.26c-1.26,1.27-1.26,3.32,0,4.59,1.26,1.27,3.29,1.27,4.55,0,1.25-1.27,1.25-3.32,0-4.59-1.26-1.27-3.29-1.27-4.55,0h0Z"/>
      <path class="cls-1" d="m23.13,12.26c-1.25,1.27-1.25,3.32,0,4.59,1.26,1.27,3.3,1.27,4.55,0,1.25-1.27,1.25-3.32,0-4.59-1.26-1.27-3.29-1.27-4.55,0h0Z"/>
      <path class="cls-2" d="m17.72,6.81c1.26-1.27,3.29-1.27,4.55,0,1.26,1.27,1.26,3.32,0,4.58-1.26,1.27-3.3,1.27-4.55,0-1.25-1.27-1.25-3.32,0-4.58h0Z"/>
    </g>
  </g>
</svg>