<?xml version="1.0" encoding="UTF-8"?>
<svg id="svg2985" xmlns="http://www.w3.org/2000/svg" viewBox="0 0 682.67 682.67">
    <defs>
        <style>
            .cls-1 {
            stroke: #4e1498;
            }

            .cls-1, .cls-2, .cls-3 {
            fill: none;
            }

            .cls-1, .cls-3 {
            stroke-linecap: round;
            stroke-linejoin: round;
            stroke-width: 26.67px;
            }

            .cls-4 {
            fill-rule: evenodd;
            }

            .cls-4, .cls-2 {
            stroke-width: 0px;
            }

            .cls-3 {
            stroke: #000;
            }
        </style>
    </defs>
    <rect class="cls-2" x="0" y="0" width="682.67" height="682.67"/>
    <g id="g2995">
        <g id="g3001">
            <path id="path3003" class="cls-3" d="m365.41,19.26l38.35,20.24,36.84-4.67c18.18-2.3,35.35,5.16,46.24,18.29l.1-.08,27.68,33.36,35.67,9.75c17.7,4.82,30.73,18.3,35.76,34.62l.06-.02,12.73,41.19,29.36,22.76c15.15,11.7,22.01,30.16,19.61,47.85l-3.79,40.74,18.57,32.53c9.01,15.88,8.69,34.51.79,49.56h.02s-20.24,38.37-20.24,38.37l4.67,36.84c2.3,18.18-5.16,35.35-18.29,46.24l.08.1-33.36,27.68-9.74,35.67c-4.82,17.7-18.29,30.72-34.62,35.76l.02.05-41.19,12.73-22.76,29.36c-11.7,15.15-30.15,22.01-47.85,19.61l-40.74-3.79-32.53,18.57c-15.88,9.01-34.51,8.69-49.56.79v.02s-38.37-20.24-38.37-20.24l-36.84,4.67c-18.18,2.3-35.35-5.16-46.24-18.3l-.1.08-27.68-33.37-35.67-9.74c-17.7-4.82-30.73-18.3-35.76-34.62l-.05.02-12.73-41.19-29.36-22.76c-15.15-11.7-22.01-30.16-19.61-47.85l3.79-40.74-18.57-32.53c-9.01-15.88-8.69-34.51-.79-49.56h-.02s20.24-38.36,20.24-38.36l-4.67-36.84c-2.3-18.18,5.16-35.35,18.3-46.24l-.08-.1,33.36-27.68,9.74-35.67c4.82-17.7,18.29-30.73,34.62-35.76l-.02-.05,41.19-12.74,22.76-29.36c11.7-15.15,30.15-22.01,47.85-19.61l40.74,3.79,32.53-18.57c15.88-9.01,34.52-8.69,49.56-.79v-.02Z"/>
        </g>
        <g id="g3005">
            <path id="path3007" class="cls-1" d="m244.72,524.33c22.03,0,40-17.97,40-40s-17.97-40-40-40-40,17.97-40,40,17.97,40,40,40Z"/>
        </g>
        <g id="g3009">
            <path id="path3011" class="cls-1" d="m482.05,386.99c22.03,0,40-17.97,40-40s-17.97-40-40-40-40,17.97-40,40,17.97,40,40,40Z"/>
        </g>
        <g id="g3013">
            <path id="path3015" class="cls-1" d="m266.05,253.66c22.03,0,40-17.97,40-40s-17.97-40-40-40-40,17.97-40,40,17.97,40,40,40Z"/>
        </g>
        <g id="g3017">
            <path id="path3019" class="cls-4" d="m158.06,372.33c14.69,0,26.67-11.98,26.67-26.67s-11.98-26.67-26.67-26.67-26.67,11.98-26.67,26.67,11.98,26.67,26.67,26.67"/>
        </g>
        <g id="g3021">
            <path id="path3023" class="cls-4" d="m414.05,530.99c14.69,0,26.67-11.98,26.67-26.67s-11.98-26.67-26.67-26.67-26.67,11.98-26.67,26.67,11.98,26.67,26.67,26.67"/>
        </g>
        <g id="g3025">
            <path id="path3027" class="cls-4" d="m442.06,212.33c14.69,0,26.67-11.98,26.67-26.67s-11.98-26.67-26.67-26.67-26.67,11.98-26.67,26.67,11.98,26.67,26.67,26.67"/>
        </g>
        <g id="g3029">
            <path id="path3031" class="cls-3" d="m341.32,341.33h0"/>
        </g>
        <g id="g3033">
            <path id="path3035" class="cls-3" d="m327.39,572.33h0"/>
        </g>
        <g id="g3037">
            <path id="path3039" class="cls-3" d="m520.72,458.99h0"/>
        </g>
        <g id="g3041">
            <path id="path3043" class="cls-3" d="m138.05,225.66h.01"/>
        </g>
        <g id="g3045">
            <path id="path3047" class="cls-3" d="m532.72,228.33h0"/>
        </g>
        <g id="g3049">
            <path id="path3051" class="cls-3" d="m348.72,121.66h.01"/>
        </g>
    </g>
</svg>
