<?xml version="1.0" encoding="UTF-8"?>
<svg id="_Слой_2" data-name="Слой 2" xmlns="http://www.w3.org/2000/svg" viewBox="0 0 40 40">
  <defs>
    <style>
      .cls-1 {
        fill: #fff;
      }

      .cls-1, .cls-2 {
        stroke-width: 0px;
      }

      .cls-2 {
        fill: #4e1498;
      }
    </style>
  </defs>
  <g id="Layer_1" data-name="Layer 1">
    <rect class="cls-2" width="40" height="40" rx="6.73" ry="6.73"/>
    <g>
      <path class="cls-1" d="m25.55,31s-.05-.1-.04-.14c.03-.31.06-.62.09-.92.04-.35.08-.7.13-1.04.14-.9.3-1.8.68-2.64.27-.61.7-1.05,1.33-1.27.22-.08.43-.18.63-.3.36-.21.59-.54.76-.92.24-.51.37-1.05.47-1.6.11-.55.16-1.11.18-1.67.01-.48.02-.95.05-1.43.03-.61.02-1.23.2-1.82.07-.23.16-.45.38-.59.04-.02.08-.04.14-.07,0,.06.01.11.01.15,0,3.33,0,6.65,0,9.98,0,1.35,0,2.71,0,4.06,0,.09.01.18-.1.22h-4.9Z"/>
      <path class="cls-1" d="m10.51,31c-.01-.07-.05-.15-.03-.21.1-.4.21-.79.34-1.18.12-.37.26-.74.41-1.11.13-.32.28-.64.44-.95.14-.25.31-.48.47-.71.1-.14.19-.29.31-.42.14-.16.29-.31.44-.45.14-.13.29-.25.45-.36.24-.16.49-.29.74-.44.09-.05.18-.09.28-.13.11-.05.14-.02.14.09,0,1.89,0,3.79,0,5.68,0,.06-.01.12-.02.18h-3.95Z"/>
      <path class="cls-1" d="m30.56,9.02c0,.09,0,.15,0,.21,0,.56,0,1.11,0,1.67,0,.14-.02.19-.18.22-.37.06-.7.23-1.01.43-.46.29-.88.63-1.21,1.06-.23.3-.42.64-.59.98-.45.88-.84,1.79-1.36,2.63-.33.52-.68,1.03-1.03,1.54-.43.61-.94,1.15-1.49,1.65-.53.49-1.1.94-1.74,1.29-.33.18-.65.37-.99.51-.45.19-.92.37-1.39.51-.54.17-1.09.29-1.65.35-.2.02-.4.03-.59.08-.23.06-.36-.07-.5-.21-.25-.25-.51-.49-.76-.73-.09-.09-.18-.18-.27-.27-.15-.14-.29-.29-.44-.43-.26-.25-.52-.49-.78-.73-.02-.02-.04-.03-.08-.06,0,.08-.02.14-.02.21,0,.82,0,1.64,0,2.46,0,.1-.03.14-.14.18-.39.14-.77.33-1.11.57-.31.22-.62.45-.9.71-.24.22-.44.48-.64.74-.22.29-.42.59-.6.9-.15.25-.27.51-.39.78-.16.38-.32.76-.46,1.15-.12.33-.2.66-.3,1-.09.32-.17.63-.25.95-.04.18-.08.36-.12.54,0,.02-.02.04-.06.06,0-.1,0-.19,0-.29.02-.22.04-.43.06-.65.05-.45.1-.89.15-1.34.04-.34.07-.67.13-1,.11-.58.23-1.16.37-1.73.09-.36.21-.72.33-1.07.17-.5.4-.97.72-1.39.18-.23.39-.44.6-.65.16-.16.33-.31.49-.46.16-.16.34-.3.48-.48.15-.18.27-.39.38-.6.19-.36.29-.75.38-1.15.09-.42.16-.84.23-1.26.07-.41.13-.82.19-1.23.06-.42.11-.84.16-1.26.07-.56.15-1.12.23-1.69,0-.03.02-.05.04-.1.12.11.23.21.34.3.44.4.88.81,1.32,1.21.52.48,1.04.96,1.56,1.45.17.16.32.32.49.48.2.18.41.36.62.54.36.33.71.66,1.07.99q.13.12.26,0c.55-.51,1.1-1.02,1.65-1.52.49-.46.99-.91,1.48-1.37.37-.34.75-.68,1.12-1.02.35-.32.7-.65,1.05-.98.45-.41.9-.82,1.34-1.23.47-.43.94-.87,1.41-1.3.38-.35.77-.7,1.15-1.05.38-.35.77-.7,1.15-1.05.01-.01.03-.02.08-.06Z"/>
      <path class="cls-1" d="m30.56,12.91c0,.47,0,.91,0,1.35,0,.03-.02.07-.05.08-.72.37-1.08,1-1.26,1.75-.11.46-.18.93-.18,1.4-.01,1.01,0,2.03-.03,3.04-.01.62-.08,1.23-.31,1.81-.24.6-.66.99-1.31,1.11-.39.07-.76.19-1.09.43-.26.2-.47.45-.66.71-.04.06-.09.12-.15.21v-5.09s-.02,0-.03-.01c-.03.03-.06.07-.1.1-.54.52-1.08,1.03-1.62,1.55-.46.44-.92.89-1.38,1.34-.37.36-.75.71-1.12,1.07-.31.3-.61.6-.91.9-.08.08-.17.17-.26.25-.05.05-.11.06-.16,0-.19-.18-.38-.37-.57-.55-.26-.25-.52-.51-.79-.76-.07-.07-.06-.12.03-.16.38-.16.77-.31,1.15-.47.32-.14.64-.29.96-.44.63-.3,1.22-.65,1.78-1.06.4-.3.78-.63,1.15-.96.82-.75,1.49-1.63,2.11-2.55.53-.78,1-1.59,1.46-2.41.37-.66.76-1.31,1.31-1.84.42-.4.9-.69,1.49-.75.18-.02.37-.02.57-.04Z"/>
      <path class="cls-1" d="m9.44,9c.23.21.42.39.62.57.55.51,1.1,1.02,1.66,1.53.44.41.88.81,1.32,1.21.13.12.09.26.1.39.08,1.16.13,2.32.1,3.48-.01.47-.06.95-.09,1.42-.02.24-.02.49-.06.73-.06.37-.13.74-.21,1.1-.04.16-.11.31-.18.46-.09.18-.23.33-.42.41-.17.07-.34.02-.49-.09-.18-.13-.36-.27-.55-.39-.22-.14-.52-.05-.68.16-.19.26-.34.55-.46.85-.2.49-.33,1-.44,1.52-.06.27-.11.54-.16.81h-.03s-.03-.09-.03-.14c0-.96,0-1.92,0-2.88,0-2.19,0-4.37,0-6.56,0-1.47,0-2.93,0-4.4,0-.05,0-.09,0-.17Z"/>
    </g>
  </g>
</svg>