<?xml version="1.0" encoding="UTF-8"?>
<svg id="_Слой_2" data-name="Слой 2" xmlns="http://www.w3.org/2000/svg" viewBox="0 0 40 40">
  <defs>
    <style>
      .cls-1 {
        fill: #141413;
      }

      .cls-1, .cls-2 {
        stroke-width: 0px;
      }

      .cls-2 {
        fill: #fff;
      }
    </style>
  </defs>
  <g id="Layer_1" data-name="Layer 1">
    <rect class="cls-1" width="40" height="40" rx="6.73" ry="6.73"/>
    <path class="cls-2" d="m28.8,11.2c-4.83-4.88-12.71-4.92-17.59-.09-4.88,4.83-4.92,12.71-.09,17.59.03.03.06.06.09.09,4.83,4.88,12.71,4.92,17.59.09s4.92-12.71.09-17.59c-.03-.03-.06-.06-.09-.09Zm-19.46,8.8c0-.94.12-1.88.37-2.79.41.88,1,1.64,1.4,2.54.52,1.16,1.92.84,2.53,1.85.55.9-.04,2.04.37,2.98.3.68,1,.83,1.48,1.33.49.5.48,1.2.56,1.85.09.77.22,1.54.41,2.29,0,0,0,.01,0,.02-4.16-1.46-7.14-5.42-7.14-10.07Zm10.66,10.66c-.6,0-1.19-.05-1.78-.15,0-.15,0-.29.02-.39.13-.88.58-1.75,1.17-2.41.59-.65,1.4-1.09,1.89-1.83.49-.72.63-1.69.43-2.54-.3-1.25-1.99-1.66-2.9-2.34-.52-.39-.99-.99-1.68-1.04-.32-.02-.58.05-.9-.03-.29-.07-.52-.23-.82-.19-.57.08-.94.69-1.55.61-.59-.08-1.19-.76-1.32-1.32-.17-.72.4-.95,1-1.01.25-.03.54-.06.78.04.32.12.47.43.76.59.54.3.65-.18.57-.66-.12-.72-.27-1.01.37-1.51.44-.34.82-.59.75-1.2-.04-.36-.24-.52-.06-.88.14-.27.52-.52.77-.68.64-.42,2.76-.39,1.89-1.56-.25-.34-.72-.96-1.17-1.05-.56-.1-.8.51-1.19.79-.4.28-1.18.6-1.58.17-.54-.59.36-.78.56-1.19.09-.19,0-.46-.15-.71.2-.08.4-.16.61-.23.13.1.28.15.44.17.37.02.72-.18,1.05.08.36.28.62.63,1.1.72.46.08.95-.19,1.07-.66.07-.29,0-.59-.07-.89,2.08.01,4.1.63,5.83,1.79-.11-.04-.24-.04-.41.04-.34.16-.81.56-.85.95-.04.45.62.51.93.51.47,0,.95-.21.8-.76-.07-.24-.16-.48-.3-.63.35.24.68.5,1,.79,0,0,0,0-.01.01-.32.33-.69.6-.91,1-.15.29-.33.42-.64.49-.17.04-.37.06-.51.17-.4.32-.17,1.08.21,1.31.48.29,1.2.15,1.56-.26.28-.32.45-.88.96-.88.22,0,.44.09.6.24.21.22.17.42.21.7.08.49.51.22.77-.02.19.34.36.69.51,1.04-.29.41-.51.86-1.2.38-.41-.29-.67-.71-1.18-.84-.45-.11-.92,0-1.36.08-.51.09-1.11.13-1.5.51-.37.37-.57.87-.97,1.24-.77.72-1.09,1.51-.59,2.53.48.98,1.48,1.51,2.55,1.44,1.06-.07,2.16-.68,2.13.85-.01.54.1.92.27,1.43.15.47.14.92.18,1.4.03.56.12,1.12.26,1.67-2.02,2.6-5.12,4.12-8.41,4.12h0Z"/>
  </g>
</svg>