<?xml version="1.0" encoding="UTF-8"?>
<svg id="Layer_2" xmlns="http://www.w3.org/2000/svg" viewBox="0 0 40 40">
  <defs>
    <style>
      .cls-1 {
      fill: #fff;
      }

      .cls-2 {
      fill: #f47920;
      }
    </style>
  </defs>
  <g id="Layer_1-2" data-name="Layer_1">
    <rect class="cls-2" width="40" height="40" rx="6.73" ry="6.73"/>
    <g id="logo">
      <polygon class="cls-1" points="7.93 15.79 5.68 24.21 3.62 24.21 5.86 15.79 7.93 15.79"/>
      <polygon class="cls-1" points="9.89 19.8 13.1 24.21 10.46 24.21 7.25 19.8 8.92 18.47 8.92 18.47 12.31 15.79 14.94 15.79 9.89 19.8"/>
      <path class="cls-1" d="M34.24,17.59c-.05.07-.11.08-.17.08h-8.37l.5-1.87h6.73l1.29,1.61c.05.07.07.13.03.19h0Z"/>
      <path class="cls-1" d="M15.9,22.18c.08.1.19.15.33.15h6.99l-.5,1.88h-7.19c-.61,0-1.16-.23-1.5-.7-.34-.47-.41-1.08-.25-1.7l.96-3.6c.17-.62.57-1.24,1.17-1.71.59-.47,1.28-.71,1.89-.71h7.16l-.5,1.87h-6.96c-.14,0-.3.05-.43.16s-.23.25-.27.39l-.96,3.59c-.03.13-.02.27.05.37h0Z"/>
      <polygon class="cls-1" points="36.38 20.11 35.06 20.94 24.83 20.94 25.33 19.06 35.55 19.06 36.38 20.11"/>
      <path class="cls-1" d="M32.1,22.34c.14,0,.18.06.21.13.03.08,0,.19-.07.23l-2.41,1.52h-5.87l.5-1.87h7.64,0Z"/>
    </g>
  </g>
</svg>
