<?xml version="1.0" encoding="UTF-8"?>
<svg id="_Слой_2" data-name="Слой 2" xmlns="http://www.w3.org/2000/svg" viewBox="0 0 40 40">
  <defs>
    <style>
      .cls-1 {
        fill: #141413;
      }

      .cls-1, .cls-2, .cls-3, .cls-4 {
        stroke-width: 0px;
      }

      .cls-2 {
        fill: #f79e1b;
      }

      .cls-2, .cls-3, .cls-4 {
        fill-rule: evenodd;
      }

      .cls-3 {
        fill: #eb001b;
      }

      .cls-4 {
        fill: #ff5f00;
      }
    </style>
  </defs>
  <g id="Layer_1" data-name="Layer 1">
    <rect class="cls-1" width="40" height="40" rx="6.73" ry="6.73"/>
    <g>
      <path class="cls-4" d="m16.5,13.59h7.14v12.82h-7.14v-12.82Z"/>
      <path class="cls-3" d="m16.96,20c0-1.24.28-2.45.82-3.57.54-1.11,1.33-2.08,2.3-2.85-3.34-2.63-8.14-2.24-11.03.88-2.88,3.12-2.88,7.94,0,11.06,2.89,3.12,7.69,3.51,11.03.88-.97-.76-1.76-1.74-2.3-2.85-.54-1.11-.82-2.33-.82-3.56Z"/>
      <path class="cls-2" d="m33.27,20c0,1.53-.43,3.03-1.24,4.33-.81,1.3-1.97,2.34-3.35,3.01-1.38.67-2.91.94-4.43.77-1.52-.16-2.97-.75-4.17-1.7.97-.76,1.76-1.74,2.3-2.85.54-1.11.82-2.33.82-3.56s-.28-2.45-.82-3.56c-.54-1.11-1.32-2.08-2.3-2.85,1.2-.95,2.65-1.53,4.17-1.7,1.52-.16,3.06.1,4.43.77,1.38.67,2.54,1.71,3.35,3.01.81,1.3,1.24,2.8,1.24,4.33h0Z"/>
    </g>
  </g>
</svg>