<?xml version="1.0" encoding="UTF-8"?>
<svg id="_Слой_2" data-name="Слой 2" xmlns="http://www.w3.org/2000/svg" xmlns:xlink="http://www.w3.org/1999/xlink" viewBox="0 0 40 40">
  <defs>
    <style>
      .cls-1 {
        fill: #ffdd2d;
      }

      .cls-1, .cls-2, .cls-3, .cls-4, .cls-5 {
        stroke-width: 0px;
      }

      .cls-2 {
        fill: #333;
        fill-rule: evenodd;
      }

      .cls-3 {
        fill: none;
      }

      .cls-4 {
        fill: #fff;
      }

      .cls-6 {
        clip-path: url(#clippath);
      }

      .cls-5 {
        fill: #303030;
      }
    </style>
    <clipPath id="clippath">
      <rect class="cls-3" x="4" y="13.33" width="32" height="13.33"/>
    </clipPath>
  </defs>
  <g id="Layer_1" data-name="Layer 1">
    <rect class="cls-1" y="0" width="40" height="40" rx="6.73" ry="6.73"/>
    <g class="cls-6">
      <g>
        <path class="cls-5" d="m29.35,13.33H10.65c-3.67,0-6.65,2.98-6.65,6.67s2.98,6.67,6.65,6.67h18.7c3.67,0,6.65-2.98,6.65-6.67s-2.98-6.67-6.65-6.67Z"/>
        <path class="cls-4" d="m20.44,18.03h-2.65v4.25h1.29v-1.14h1.36c.32,0,.63,0,.93-.11.59-.19,1.02-.71,1.02-1.43s-.43-1.23-1.01-1.44c-.32-.12-.62-.13-.95-.13h0Zm-1.36,2.11v-1.08h1.18c.25,0,.39.03.51.07.2.08.3.27.3.46,0,.21-.12.42-.34.49-.11.04-.23.05-.47.05h-1.18Z"/>
        <path class="cls-4" d="m24.25,20.72l.61-1.71h.1l.61,1.71h-1.33Zm-.32.94h1.96l.25.62h1.45l-1.74-4.25h-1.89l-1.74,4.25h1.46l.24-.62h0Z"/>
        <path class="cls-4" d="m30.73,18.03l-1.05,1.94h-.05l-1.06-1.94h-1.5l1.91,3.12v1.13h1.34v-1.23l1.82-3.02h-1.41Z"/>
        <path class="cls-1" d="m7.86,16.76h7.17v3.62c0,.93-.49,1.78-1.29,2.25l-2.29,1.33-2.29-1.33c-.8-.46-1.29-1.32-1.29-2.25v-3.62Z"/>
        <path class="cls-2" d="m9.83,18.67v1.12c.15-.17.43-.29.75-.29h.35v1.31c0,.35-.09.65-.23.82h1.51c-.14-.17-.23-.47-.23-.82v-1.31h.35c.32,0,.6.12.75.29v-1.12h-3.23,0Z"/>
      </g>
    </g>
  </g>
</svg>