<?xml version="1.0" encoding="UTF-8"?>
<svg id="_Слой_2" data-name="Слой 2" xmlns="http://www.w3.org/2000/svg" xmlns:xlink="http://www.w3.org/1999/xlink" viewBox="0 0 40 40">
  <defs>
    <style>
      .cls-1 {
        fill: url(#linear-gradient);
      }

      .cls-1, .cls-2, .cls-3, .cls-4, .cls-5, .cls-6 {
        stroke-width: 0px;
      }

      .cls-2 {
        fill: url(#linear-gradient-5);
      }

      .cls-3 {
        fill: url(#linear-gradient-2);
      }

      .cls-4 {
        fill: url(#linear-gradient-3);
      }

      .cls-5 {
        fill: url(#linear-gradient-4);
      }

      .cls-6 {
        fill: #f2f2f2;
      }
    </style>
    <linearGradient id="linear-gradient" x1="25.06" y1="-134.09" x2="33.09" y2="-134.09" gradientTransform="translate(0 -112.86) scale(1 -1)" gradientUnits="userSpaceOnUse">
      <stop offset="0" stop-color="#007940"/>
      <stop offset=".23" stop-color="#00873f"/>
      <stop offset=".74" stop-color="#40a737"/>
      <stop offset="1" stop-color="#5cb531"/>
    </linearGradient>
    <linearGradient id="linear-gradient-2" x1="25.06" y1="-132.85" x2="33.09" y2="-132.85" xlink:href="#linear-gradient"/>
    <linearGradient id="linear-gradient-3" x1="25.06" y1="-131.48" x2="33.09" y2="-131.48" xlink:href="#linear-gradient"/>
    <linearGradient id="linear-gradient-4" x1="7.09" y1="-132.84" x2="15.24" y2="-132.84" gradientTransform="translate(0 -112.86) scale(1 -1)" gradientUnits="userSpaceOnUse">
      <stop offset="0" stop-color="#1f286f"/>
      <stop offset=".48" stop-color="#004e94"/>
      <stop offset=".83" stop-color="#0066b1"/>
      <stop offset="1" stop-color="#006fbc"/>
    </linearGradient>
    <linearGradient id="linear-gradient-5" x1="16.03" y1="-132.86" x2="23.95" y2="-132.86" gradientTransform="translate(0 -112.86) scale(1 -1)" gradientUnits="userSpaceOnUse">
      <stop offset="0" stop-color="#6c2c2f"/>
      <stop offset=".17" stop-color="#882730"/>
      <stop offset=".57" stop-color="#be1833"/>
      <stop offset=".86" stop-color="#dc0436"/>
      <stop offset="1" stop-color="#e60039"/>
    </linearGradient>
  </defs>
  <g id="Layer_1" data-name="Layer 1">
    <rect class="cls-6" width="40" height="40" rx="6.73" ry="6.73"/>
    <g>
      <path class="cls-1" d="m26.66,22.09h1.88c.05,0,.18-.02.23-.02.36-.07.66-.39.66-.84s-.3-.75-.66-.84c-.05-.02-.16-.02-.23-.02h-1.88v1.72Z"/>
      <path class="cls-3" d="m28.32,10.24c-1.79,0-3.25,1.45-3.25,3.25v3.38h4.59c.11,0,.23,0,.32.02,1.04.05,1.8.59,1.8,1.52,0,.73-.52,1.36-1.48,1.48v.04c1.05.07,1.86.66,1.86,1.57,0,.98-.89,1.63-2.07,1.63h-5.04v6.61h4.77c1.79,0,3.25-1.45,3.25-3.25V10.24h-4.75Z"/>
      <path class="cls-4" d="m29.2,18.62c0-.43-.3-.71-.66-.77-.04,0-.13-.02-.18-.02h-1.7v1.57h1.7c.05,0,.16,0,.18-.02.36-.05.66-.34.66-.77Z"/>
      <path class="cls-5" d="m10.34,10.24c-1.79,0-3.25,1.45-3.25,3.25v8.02c.91.45,1.86.73,2.81.73,1.13,0,1.73-.68,1.73-1.61v-3.79h2.79v3.77c0,1.47-.91,2.66-4,2.66-1.88,0-3.34-.41-3.34-.41v6.84h4.77c1.79,0,3.25-1.45,3.25-3.25V10.24h-4.75Z"/>
      <path class="cls-2" d="m19.33,10.24c-1.79,0-3.25,1.45-3.25,3.25v4.25c.82-.7,2.25-1.14,4.56-1.04,1.23.05,2.56.39,2.56.39v1.38c-.66-.34-1.45-.64-2.47-.71-1.75-.13-2.81.73-2.81,2.23s1.05,2.38,2.81,2.23c1.02-.07,1.8-.39,2.47-.71v1.38s-1.3.34-2.56.39c-2.31.11-3.73-.34-4.56-1.04v7.51h4.77c1.79,0,3.25-1.45,3.25-3.25V10.24h-4.77Z"/>
    </g>
  </g>
</svg>