<?xml version="1.0" encoding="UTF-8"?>
<svg id="_Слой_2" data-name="Слой 2" xmlns="http://www.w3.org/2000/svg" viewBox="0 0 125.7 19.73">
  <defs>
    <style>
      .cls-1 {
        fill-rule: evenodd;
        stroke-width: 0px;
		fill: #4e1498;
      }
    </style>
  </defs>
  <g id="_Слой_1-2" data-name="Слой 1">
    <path class="cls-1" d="m123.08,16.31c-1.75,1.76-3.84,2.62-6.31,2.62s-4.55-.86-6.31-2.62c-1.75-1.76-2.62-3.84-2.62-6.31s.86-4.55,2.62-6.31c1.75-1.75,3.84-2.62,6.31-2.62s4.55.87,6.31,2.62c1.75,1.76,2.62,3.84,2.62,6.31,0,2.47-.87,4.55-2.62,6.31Zm-.92-11.75c-1.5-1.53-3.28-2.29-5.39-2.29s-3.92.76-5.42,2.29c-1.5,1.5-2.24,3.33-2.24,5.44s.74,3.94,2.24,5.47,3.31,2.29,5.42,2.29,3.89-.76,5.39-2.29c1.5-1.53,2.26-3.36,2.26-5.47s-.76-3.94-2.26-5.44Zm-16.75,14.12l-7.94-8.73h3.71c1.14,0,2.09-.36,2.8-1.04.74-.71,1.09-1.6,1.09-2.67s-.36-1.98-1.09-2.7c-.71-.71-1.65-1.07-2.8-1.07h-4.3v16.2h-1.27V1.33h5.52c1.58,0,2.85.48,3.79,1.42.94.94,1.43,2.11,1.43,3.49s-.48,2.52-1.43,3.46c-.94.94-2.21,1.4-3.79,1.4h-.99l7.05,7.58h-1.78Zm-17.19-7.23h-4.25v7.22h-1.25V1.33h5.52c1.73,0,3.05.51,3.97,1.53.92,1.02,1.37,2.19,1.37,3.54s-.46,2.52-1.37,3.54c-.92,1.02-2.24,1.53-3.99,1.53Zm.05-8.98h-4.3v7.84h4.3c2.54,0,4.04-1.65,4.04-3.89,0-2.26-1.5-3.94-4.04-3.94Zm-11.78,16.26h-4.2v-6.89l-6.03-10.46h4.71l3.43,7.07,3.41-7.07h4.71l-6.03,10.46v6.89Zm-8.01,0h-11.91V1.38h4.2v13.41h7.71s0,3.94,0,3.94Zm-26.18,0h-4.2V.42l10.48,9.92V1.38h4.2v18.34l-10.48-9.82v8.83Zm-14.5-9.75l-3.71,9.54h-4.76L27.82,0l8.52,18.52h-4.83l-3.71-9.54Zm-14.47.37l-4.55,4.4-4.55-4.37v9.36H0V.44l8.78,8.06L17.55.44v18.29h-4.22v-9.39Z"/>
  </g>
</svg>