<?xml version="1.0" encoding="UTF-8"?>
<svg id="_Слой_2" data-name="Слой 2" xmlns="http://www.w3.org/2000/svg" viewBox="0 0 40 40">
  <defs>
    <style>
      .cls-1 {
        fill: #006848;
      }

      .cls-1, .cls-2 {
        stroke-width: 0px;
      }

      .cls-2 {
        fill: #fff;
      }
    </style>
  </defs>
  <g id="Layer_1" data-name="Layer 1">
    <rect class="cls-1" width="40" height="40" rx="6.73" ry="6.73"/>
    <path class="cls-2" d="m21.39,17.28l-1.54,3.34h-.16v-4.07h-2.19v6.89h1.86c.49,0,.93-.28,1.14-.73l1.54-3.34h.16v4.07h2.19v-6.89h-1.86c-.49,0-.93.28-1.14.73Zm-8.23.18l-.91,3.17h-.16l-.91-3.17c-.15-.54-.65-.91-1.2-.91h-2.19v6.89h2.19v-4.07h.16l1.25,4.07h1.57l1.25-4.07h.16v4.07h2.19v-6.89h-2.19c-.56,0-1.05.37-1.2.91Zm12.16,2.23v3.76h2.19v-2.19h2.35c1.02,0,1.89-.65,2.21-1.57h-6.76Zm4.54-3.13h-4.86c.29,1.6,1.7,2.82,3.39,2.82h3.77c.03-.15.05-.31.05-.47,0-1.3-1.05-2.35-2.35-2.35Z"/>
  </g>
</svg>