<?xml version="1.0" encoding="UTF-8"?>
<svg id="_Слой_2" data-name="Слой 2" xmlns="http://www.w3.org/2000/svg" xmlns:xlink="http://www.w3.org/1999/xlink" viewBox="0 0 40 40">
  <defs>
    <style>
      .cls-1 {
        fill: none;
      }

      .cls-1, .cls-2, .cls-3 {
        stroke-width: 0px;
      }

      .cls-2 {
        fill: #fff;
      }

      .cls-4 {
        clip-path: url(#clippath);
      }

      .cls-3 {
        fill: #1928dc;
      }
    </style>
    <clipPath id="clippath">
      <rect class="cls-1" x="4.33" y="10.45" width="31.34" height="19.1"/>
    </clipPath>
  </defs>
  <g id="Layer_1" data-name="Layer 1">
    <rect class="cls-3" width="40" height="40" rx="6.73" ry="6.73"/>
    <g class="cls-4">
      <g>
        <path class="cls-2" d="m9.61,10.59v8.56h-1.43v-7.33h-2.43v7.33h-1.43v-8.56h5.28Z"/>
        <path class="cls-2" d="m12.39,18.81c-.43-.39-.74-.89-.9-1.45-.23-.78-.35-1.6-.33-2.41-.02-.84.1-1.68.33-2.48.16-.58.47-1.1.9-1.51.38-.32.86-.5,1.35-.5s.98.18,1.35.5c.43.41.74.93.89,1.51.23.81.35,1.65.33,2.49.02.82-.1,1.63-.33,2.42-.16.56-.46,1.06-.89,1.45-.38.31-.86.48-1.36.48s-.97-.17-1.36-.48h0Zm.35-2.17c.06.37.19.73.4,1.04.07.1.15.18.26.24.1.06.22.09.34.09.35,0,.63-.26.84-.77.24-.75.34-1.53.3-2.31,0-.6-.04-1.19-.14-1.78-.05-.39-.19-.75-.4-1.08-.06-.11-.15-.2-.25-.26-.11-.06-.23-.1-.35-.1s-.24.03-.35.1c-.11.06-.19.15-.25.26-.21.33-.34.7-.4,1.08-.1.59-.15,1.18-.14,1.77,0,.58.04,1.15.14,1.72Z"/>
        <path class="cls-2" d="m20.76,10.59v3.28h-.76c-.27.02-.55-.03-.8-.15-.2-.11-.35-.28-.43-.49-.1-.29-.15-.6-.14-.91v-1.73h-1.43v1.72c-.04.74.18,1.48.63,2.07.23.26.53.46.85.6.32.13.68.19,1.03.16h1.04v4h1.43v-8.56h-1.43Z"/>
        <path class="cls-2" d="m28.48,11.82h-1.67v7.33h-1.43v-7.33h-1.67v-1.23h4.77v1.23Z"/>
        <path class="cls-2" d="m31.38,10.59h1.14c.47-.03.94.09,1.34.33.35.24.63.57.79.97.2.49.32,1,.37,1.53l.66,5.71h-1.43l-.46-3.99h-2.42v4.01h-1.43v-8.56h1.43Zm0,3.33h2.28l-.06-.49c-.03-.32-.09-.63-.19-.93-.07-.2-.21-.37-.4-.48-.24-.11-.5-.17-.77-.15h-.85v2.05Z"/>
        <path class="cls-2" d="m5.9,20.85c.48-.01.94.11,1.35.35.4.26.71.63.89,1.07.23.56.34,1.16.33,1.77.01.57-.09,1.14-.3,1.67-.16.41-.41.77-.74,1.06-.22.21-.51.34-.82.36-.16.01-.32-.01-.47-.07-.15-.06-.28-.15-.39-.26v2.61h-1.43v-8.56h1.57Zm-.06,4.43c.04.15.11.29.21.41.03.04.08.08.12.1.05.02.1.04.15.04.13,0,.24-.06.33-.15.13-.14.23-.31.28-.5.08-.28.12-.58.11-.87,0-.8-.1-1.36-.29-1.69-.08-.15-.2-.28-.35-.37-.15-.09-.32-.13-.49-.13h-.15v2.5c0,.22.02.44.08.66Z"/>
        <path class="cls-2" d="m10.05,29.07c-.43-.39-.74-.9-.9-1.46-.23-.78-.35-1.6-.33-2.41-.02-.84.1-1.67.33-2.48.16-.58.47-1.1.9-1.51.38-.32.86-.5,1.35-.5s.98.18,1.35.5c.43.41.74.93.89,1.51.23.81.35,1.65.33,2.49.02.82-.08,1.63-.31,2.42-.16.56-.46,1.06-.89,1.45-.38.31-.86.48-1.36.48s-.97-.17-1.36-.48h-.01Zm.35-2.16c.06.36.19.71.4,1.02.07.1.15.18.26.24.1.06.22.09.34.09.35,0,.63-.26.83-.77.24-.75.34-1.53.31-2.31,0-.6-.04-1.19-.14-1.78-.05-.38-.19-.75-.4-1.08-.06-.11-.15-.2-.25-.26-.11-.06-.23-.1-.35-.1s-.24.03-.35.1c-.11.06-.19.15-.25.26-.21.34-.34.72-.39,1.11-.1.59-.15,1.18-.14,1.77,0,.57.04,1.14.14,1.71Z"/>
        <path class="cls-2" d="m14.96,22.79c.35-.64.9-1.16,1.56-1.47.78-.34,1.62-.5,2.47-.47v1.28c-1.02,0-1.79.25-2.33.77-.54.51-.81,1.28-.81,2.31s.27,1.72.81,2.2c.54.48,1.32.73,2.33.73v1.27c-1.46,0-2.58-.35-3.38-1.06-.79-.7-1.19-1.76-1.19-3.15-.03-.84.15-1.67.53-2.41Z"/>
        <path class="cls-2" d="m19.76,22.79c.35-.65.9-1.16,1.56-1.47.77-.34,1.61-.51,2.46-.48v1.28c-1.01,0-1.79.25-2.33.77-.54.51-.81,1.29-.81,2.31s.27,1.72.81,2.2c.54.48,1.32.73,2.33.73v1.28c-1.46,0-2.58-.35-3.38-1.06-.79-.7-1.19-1.76-1.19-3.15-.03-.84.16-1.67.54-2.41Z"/>
        <path class="cls-2" d="m25.88,20.85v3.05l2.42-2.04,1.43-1.2v8.75h-1.43v-5.82l-2.42,2.04v3.78h-1.43v-8.56h1.43Z"/>
        <path class="cls-2" d="m31.82,20.85v3.05l2.42-2.04,1.42-1.19v8.74h-1.43v-5.82l-2.42,2.04v3.78h-1.42v-8.56h1.43Z"/>
      </g>
    </g>
  </g>
</svg>