<?xml version="1.0" encoding="UTF-8"?>
<svg id="_Слой_2" data-name="Слой 2" xmlns="http://www.w3.org/2000/svg" xmlns:xlink="http://www.w3.org/1999/xlink" viewBox="0 0 40 40">
  <defs>
    <style>
      .cls-1 {
        fill: url(#linear-gradient);
      }

      .cls-1, .cls-2, .cls-3, .cls-4, .cls-5, .cls-6 {
        stroke-width: 0px;
      }

      .cls-2 {
        fill: url(#linear-gradient-2);
      }

      .cls-3 {
        fill: #fff;
        fill-rule: evenodd;
      }

      .cls-4 {
        fill: url(#linear-gradient-3);
      }

      .cls-5 {
        fill: #13dc20;
      }

      .cls-6 {
        fill: #08b64e;
      }
    </style>
    <linearGradient id="linear-gradient" x1="37.72" y1="7.22" x2="5.28" y2="30.62" gradientUnits="userSpaceOnUse">
      <stop offset="0" stop-color="#19ccdc"/>
      <stop offset=".22" stop-color="#19ccdc" stop-opacity=".75"/>
      <stop offset="1" stop-color="#19ccdc" stop-opacity="0"/>
    </linearGradient>
    <linearGradient id="linear-gradient-2" x1="40.83" y1="11.94" x2="3.53" y2="26.38" gradientUnits="userSpaceOnUse">
      <stop offset="0" stop-color="#3bdfb4"/>
      <stop offset=".42" stop-color="#3bdfb4" stop-opacity=".55"/>
      <stop offset="1" stop-color="#3bdfb4" stop-opacity="0"/>
    </linearGradient>
    <linearGradient id="linear-gradient-3" x1="-38.33" y1="54.04" x2="28.22" y2="15.2" gradientUnits="userSpaceOnUse">
      <stop offset=".33" stop-color="#f5ed01" stop-opacity=".8"/>
      <stop offset="1" stop-color="#f5ed01" stop-opacity="0"/>
    </linearGradient>
  </defs>
  <g id="Layer_1" data-name="Layer 1">
    <g>
      <g>
        <rect class="cls-5" width="40" height="40" rx="6.73" ry="6.73"/>
        <rect class="cls-1" width="40" height="40" rx="6.73" ry="6.73"/>
        <rect class="cls-2" width="40" height="40" rx="6.73" ry="6.73"/>
        <rect class="cls-4" width="40" height="40" rx="6.73" ry="6.73"/>
      </g>
      <g>
        <path class="cls-6" d="m28.1,13.33H11.9c-3.68,0-6.67,2.98-6.67,6.67s2.98,6.67,6.67,6.67h16.19c3.68,0,6.67-2.98,6.67-6.67s-2.98-6.67-6.67-6.67Z"/>
        <path class="cls-3" d="m27.62,27.62h-15.24c-2.02,0-3.96-.8-5.39-2.23-1.43-1.43-2.23-3.37-2.23-5.39s.8-3.96,2.23-5.39c1.43-1.43,3.37-2.23,5.39-2.23h15.24c2.02,0,3.96.8,5.39,2.23,1.43,1.43,2.23,3.37,2.23,5.39s-.8,3.96-2.23,5.39c-1.43,1.43-3.37,2.23-5.39,2.23Zm-17.22-7.54v-1.2l1.59,1,3.31-2.44c.2.26.37.54.5.83l-3.82,2.81-1.59-1Zm4.81-.17v.09c0,.72-.24,1.42-.68,1.99-.44.57-1.06.97-1.76,1.15-.7.17-1.44.11-2.09-.18-.66-.29-1.2-.8-1.54-1.44s-.45-1.37-.32-2.08c.13-.71.49-1.36,1.03-1.84.54-.48,1.22-.77,1.94-.81.72-.05,1.43.15,2.03.56l.82-.6c-.74-.6-1.66-.93-2.61-.93-.95,0-1.87.31-2.62.9-.75.59-1.27,1.41-1.48,2.34-.22.93-.11,1.9.3,2.75.41.86,1.1,1.55,1.95,1.97.86.41,1.83.53,2.75.32.93-.21,1.76-.73,2.35-1.47.59-.74.92-1.66.92-2.62,0-.25-.02-.5-.07-.75l-.9.66Zm5.13,2.61v-1.71h.85c1.61,0,2.47-.64,2.47-1.92s-.74-1.86-2.47-1.86h-1.82v5.48h.98Zm0-2.61v-1.97h.94c.95,0,1.36.26,1.36.93,0,.74-.47,1.04-1.38,1.04h-.92Zm3.83-1.03c.26-.19.73-.35,1.4-.35,1.14,0,1.71.39,1.71,1.41v2.58h-.86v-.71c-.19.45-.67.77-1.29.77-.79,0-1.26-.45-1.26-1.21,0-.89.65-1.14,1.61-1.14h.89v-.17c0-.56-.27-.73-.79-.73-.72,0-1.14.28-1.4.7v-1.14Zm2.19,2.26v-.32h-.77c-.54,0-.8.1-.8.45,0,.3.22.49.63.49.62,0,.91-.35.95-.62Zm2.39-2.53h-1.02l1.65,3.94c-.15.53-.36.72-.64.72-.18,0-.34-.07-.47-.2v.85c.12.1.38.17.63.17.52,0,.87-.21,1.21-1.15l1.57-4.33h-.97l-.88,2.69-1.07-2.69Z"/>
      </g>
    </g>
  </g>
</svg>