<?xml version="1.0" encoding="UTF-8"?>
<svg id="_Слой_2" data-name="Слой 2" xmlns="http://www.w3.org/2000/svg" viewBox="0 0 40 40">
  <defs>
    <style>
      .cls-1 {
        fill: #1ab248;
      }

      .cls-1, .cls-2 {
        stroke-width: 0px;
      }

      .cls-2 {
        fill: #fff;
        fill-rule: evenodd;
      }
    </style>
  </defs>
  <g id="Layer_1" data-name="Layer 1">
    <rect class="cls-1" width="40" height="40" rx="6.73" ry="6.73"/>
    <path class="cls-2" d="m9.23,22.24h-1.35c-2.11,0-.58-4.48,1.2-4.48h2.14c.34,0,.95.06,1.24-.78l.46-1.32h-2.93c-1.59,0-2.82.56-3.72,1.5-1.54,1.61-2.07,4.11-1.7,5.31.35,1.11,1.31,1.84,2.81,1.86h1.16s1.43,0,1.43,0l.35-1.06c.26-.75-.32-1.04-1.1-1.04Zm16.47-1.86l.44-1.43h-4.72c-.78,0-1.14.22-1.27.67l-.44,1.43h4.72c.78,0,1.14-.22,1.27-.67Zm-6.69,2.53l-.44,1.43h4.72c.78,0,1.14-.22,1.27-.67l.44-1.43h-4.72c-.78,0-1.13.22-1.27.67Zm7.79-5.81l.44-1.43h-4.72c-.78,0-1.14.22-1.27.67l-.44,1.43h4.72c.78,0,1.13-.22,1.27-.67Zm-7.13.29c-.2-1.33-.91-1.72-2.64-1.72h-3.16l-1.84,5.38h1.16c.69,0,1.05,0,1.42-.98l.77-2.31h1.17c1,0,.78,1.25.27,2.47-.45,1.07-1.24,2.02-2.18,2.02h-1.96c-.78,0-1.15.22-1.29.67l-.49,1.43h2.84c1.24-.02,2.26-.11,3.45-1.18,1.26-1.15,2.72-4.09,2.47-5.78Zm15.86-1.73h-2.73l-2.57,2.73c-.3.32-.6.63-.9,1h-.03l1.28-3.73h-2.23l-3,8.69h2.23l.96-2.73.99-.84.78,2.47c.24.77.5,1.1,1.04,1.1h1.7l-1.75-4.85,4.23-3.83Z"/>
  </g>
</svg>