<?xml version="1.0" encoding="UTF-8"?>
<svg id="_Слой_2" data-name="Слой 2" xmlns="http://www.w3.org/2000/svg" viewBox="0 0 40 40">
  <defs>
    <style>
      .cls-1 {
        fill: #fff;
      }

      .cls-1, .cls-2 {
        stroke-width: 0px;
      }

      .cls-2 {
        fill: #1434cb;
      }
    </style>
  </defs>
  <g id="Layer_1" data-name="Layer 1">
    <rect class="cls-2" width="40" height="40" rx="6.73" ry="6.73"/>
    <path class="cls-1" d="m16.39,15.35l-3.93,9.32h-2.56l-1.93-7.44c-.12-.46-.22-.63-.58-.82-.58-.31-1.54-.61-2.39-.79l.06-.27h4.12c.53,0,1,.35,1.12.95l1.02,5.39,2.52-6.34h2.55Zm10.04,6.28c.01-2.46-3.42-2.6-3.4-3.69,0-.33.33-.69,1.03-.78.35-.05,1.3-.08,2.39.42l.43-1.98c-.58-.21-1.33-.41-2.27-.41-2.4,0-4.08,1.27-4.1,3.08-.02,1.34,1.2,2.09,2.12,2.54.94.46,1.26.75,1.26,1.16,0,.63-.75.9-1.45.91-1.22.02-1.93-.33-2.49-.59l-.44,2.04c.57.26,1.61.48,2.7.5,2.55,0,4.21-1.25,4.22-3.19Zm6.33,3.04h2.24l-1.96-9.32h-2.07c-.47,0-.86.27-1.03.68l-3.64,8.64h2.55l.51-1.39h3.11l.29,1.39Zm-2.7-3.3l1.28-3.5.73,3.5h-2.01Zm-10.2-6.02l-2,9.32h-2.42l2.01-9.32h2.42Z"/>
  </g>
</svg>